<svg xmlns="http://www.w3.org/2000/svg" xmlns:xlink="http://www.w3.org/1999/xlink" version="1.1" data-diagram-type="CLASS" style="width:2250px;height:1330px;background:#FFFFFF;" width="2250px" height="1330px" viewBox="0 0 2250 1330" zoomAndPan="magnify" preserveAspectRatio="none" contentStyleType="text/css"><?plantuml 1.2026.7beta8?><defs/><g font-family="sans-serif" lengthAdjust="spacing"><!--class Person--><g class="entity" data-qualified-name="Person" id="ent0001" data-source-line="3"><rect x="880.15" y="886.94" width="382.009" height="194.672" fill="#F1F1F1" style="stroke:#181818;stroke-width:0.5;" rx="2.5" ry="2.5"/><ellipse cx="1043.132" cy="902.94" rx="11" ry="11" fill="#A9DCDF" style="stroke:#181818;stroke-width:1;"/><path d="M1043.242,898.284 L1042.086,903.362 L1044.414,903.362 L1043.242,898.284 Z M1041.757,896.049 L1044.742,896.049 L1048.101,908.44 L1045.648,908.44 L1044.882,905.377 L1041.601,905.377 L1040.851,908.44 L1038.414,908.44 L1041.757,896.049 Z " fill="#000"/><text x="1063.632" y="907.787" fill="#000" font-size="14" textLength="47.544" font-style="italic">Person</text><line x1="881.15" y1="918.94" x2="1261.159" y2="918.94" style="stroke:#181818;stroke-width:0.5;"/><g data-visibility-modifier="PROTECTED_FIELD"><polygon points="891.15,927.588,895.15,931.588,891.15,935.588,887.15,931.588" fill="none" style="stroke:#B38D22;stroke-width:1;stroke-linejoin:miter;stroke-miterlimit:10;"/></g><text x="900.15" y="935.935" fill="#000" font-size="14" textLength="68.715">ID : string</text><g data-visibility-modifier="PROTECTED_FIELD"><polygon points="891.15,943.885,895.15,947.885,891.15,951.885,887.15,947.885" fill="none" style="stroke:#B38D22;stroke-width:1;stroke-linejoin:miter;stroke-miterlimit:10;"/></g><text x="900.15" y="952.232" fill="#000" font-size="14" textLength="95.108">Name : string</text><g data-visibility-modifier="PROTECTED_FIELD"><polygon points="891.15,960.182,895.15,964.182,891.15,968.182,887.15,964.182" fill="none" style="stroke:#B38D22;stroke-width:1;stroke-linejoin:miter;stroke-miterlimit:10;"/></g><text x="900.15" y="968.529" fill="#000" font-size="14" textLength="92.647">Email : string</text><g data-visibility-modifier="PRIVATE_FIELD"><rect x="888.15" y="978.479" width="6" height="6" fill="none" style="stroke:#C82930;stroke-width:1;"/></g><text x="900.15" y="984.826" fill="#000" font-size="14" textLength="120.073">Password : string</text><line x1="881.15" y1="992.127" x2="1261.159" y2="992.127" style="stroke:#181818;stroke-width:0.5;"/><g data-visibility-modifier="PUBLIC_METHOD"><ellipse cx="891.15" cy="1005.776" rx="3" ry="3" fill="#84BE84" style="stroke:#038048;stroke-width:1;"/></g><text x="900.15" y="1009.123" fill="#000" font-size="14" textLength="356.009">Person(name:string, email:string, password:string)</text><g data-visibility-modifier="PUBLIC_METHOD"><ellipse cx="891.15" cy="1022.073" rx="3" ry="3" fill="#84BE84" style="stroke:#038048;stroke-width:1;"/></g><text x="900.15" y="1025.419" fill="#000" font-size="14" textLength="193.108">disaplayDashboard () : void</text><g data-visibility-modifier="PUBLIC_METHOD"><ellipse cx="891.15" cy="1038.37" rx="3" ry="3" fill="#84BE84" style="stroke:#038048;stroke-width:1;"/></g><text x="900.15" y="1041.716" fill="#000" font-size="14" textLength="144.997">getID() : string const</text><g data-visibility-modifier="PUBLIC_METHOD"><ellipse cx="891.15" cy="1054.667" rx="3" ry="3" fill="#84BE84" style="stroke:#038048;stroke-width:1;"/></g><text x="900.15" y="1058.013" fill="#000" font-size="14" textLength="103.653">getInfo() : void</text><g data-visibility-modifier="PUBLIC_METHOD"><ellipse cx="891.15" cy="1070.963" rx="3" ry="3" fill="#84BE84" style="stroke:#038048;stroke-width:1;"/></g><text x="900.15" y="1074.31" fill="#000" font-size="14" textLength="208.523">checkPassword () : bool const</text></g><!--class Student--><g class="entity" data-qualified-name="Student" id="ent0002" data-source-line="15"><rect x="1231.49" y="1202.61" width="533.329" height="113.188" fill="#F1F1F1" style="stroke:#181818;stroke-width:0.5;" rx="2.5" ry="2.5"/><ellipse cx="1466.349" cy="1218.61" rx="11" ry="11" fill="#ADD1B2" style="stroke:#181818;stroke-width:1;"/><path d="M1469.318,1224.251 Q1468.74,1224.548 1468.099,1224.688 Q1467.458,1224.844 1466.755,1224.844 Q1464.255,1224.844 1462.927,1223.204 Q1461.615,1221.548 1461.615,1218.423 Q1461.615,1215.298 1462.927,1213.641 Q1464.255,1211.985 1466.755,1211.985 Q1467.458,1211.985 1468.099,1212.141 Q1468.755,1212.298 1469.318,1212.594 L1469.318,1215.313 Q1468.693,1214.735 1468.099,1214.469 Q1467.505,1214.188 1466.88,1214.188 Q1465.536,1214.188 1464.849,1215.266 Q1464.161,1216.329 1464.161,1218.423 Q1464.161,1220.516 1464.849,1221.594 Q1465.536,1222.657 1466.88,1222.657 Q1467.505,1222.657 1468.099,1222.391 Q1468.693,1222.11 1469.318,1221.532 L1469.318,1224.251 Z " fill="#000"/><text x="1486.849" y="1223.457" fill="#000" font-size="14" textLength="55.111">Student</text><line x1="1232.49" y1="1234.61" x2="1763.819" y2="1234.61" style="stroke:#181818;stroke-width:0.5;"/><g data-visibility-modifier="PRIVATE_FIELD"><rect x="1239.49" y="1245.258" width="6" height="6" fill="none" style="stroke:#C82930;stroke-width:1;"/></g><text x="1251.49" y="1251.605" fill="#000" font-size="14" textLength="186.108">StudentNumber : static int</text><g data-visibility-modifier="PRIVATE_FIELD"><rect x="1239.49" y="1261.555" width="6" height="6" fill="none" style="stroke:#C82930;stroke-width:1;"/></g><text x="1251.49" y="1267.902" fill="#000" font-size="14" textLength="250.619">enrolledCourses : vector&lt;Course*></text><line x1="1232.49" y1="1275.204" x2="1763.819" y2="1275.204" style="stroke:#181818;stroke-width:0.5;"/><g data-visibility-modifier="PUBLIC_METHOD"><ellipse cx="1242.49" cy="1288.852" rx="3" ry="3" fill="#84BE84" style="stroke:#038048;stroke-width:1;"/></g><text x="1251.49" y="1292.199" fill="#000" font-size="14" textLength="507.329">Student(ame:string, email:string, password:string){StudentNumber++}</text><g data-visibility-modifier="PUBLIC_METHOD"><ellipse cx="1242.49" cy="1305.149" rx="3" ry="3" fill="#84BE84" style="stroke:#038048;stroke-width:1;"/></g><text x="1251.49" y="1308.496" fill="#000" font-size="14" textLength="190.647">getEnrolledCourses() : void</text></g><!--class Lecturer--><g class="entity" data-qualified-name="Lecturer" id="ent0003" data-source-line="22"><rect x="7" y="1218.91" width="540.302" height="80.594" fill="#F1F1F1" style="stroke:#181818;stroke-width:0.5;" rx="2.5" ry="2.5"/><ellipse cx="243.602" cy="1234.91" rx="11" ry="11" fill="#ADD1B2" style="stroke:#181818;stroke-width:1;"/><path d="M246.571,1240.551 Q245.993,1240.847 245.352,1240.988 Q244.711,1241.144 244.008,1241.144 Q241.508,1241.144 240.18,1239.504 Q238.868,1237.847 238.868,1234.722 Q238.868,1231.597 240.18,1229.941 Q241.508,1228.285 244.008,1228.285 Q244.711,1228.285 245.352,1228.441 Q246.008,1228.597 246.571,1228.894 L246.571,1231.613 Q245.946,1231.035 245.352,1230.769 Q244.758,1230.488 244.133,1230.488 Q242.79,1230.488 242.102,1231.566 Q241.415,1232.629 241.415,1234.722 Q241.415,1236.816 242.102,1237.894 Q242.79,1238.957 244.133,1238.957 Q244.758,1238.957 245.352,1238.691 Q245.946,1238.41 246.571,1237.832 L246.571,1240.551 Z " fill="#000"/><text x="264.102" y="1239.757" fill="#000" font-size="14" textLength="58.598">Lecturer</text><line x1="8" y1="1250.91" x2="546.302" y2="1250.91" style="stroke:#181818;stroke-width:0.5;"/><g data-visibility-modifier="PRIVATE_FIELD"><rect x="15" y="1261.558" width="6" height="6" fill="none" style="stroke:#C82930;stroke-width:1;"/></g><text x="27" y="1267.905" fill="#000" font-size="14" textLength="189.595">LecturerNumber : static int</text><line x1="8" y1="1275.207" x2="546.302" y2="1275.207" style="stroke:#181818;stroke-width:0.5;"/><g data-visibility-modifier="PUBLIC_METHOD"><ellipse cx="18" cy="1288.855" rx="3" ry="3" fill="#84BE84" style="stroke:#038048;stroke-width:1;"/></g><text x="27" y="1292.202" fill="#000" font-size="14" textLength="514.302">Lecturer(ame:string, email:string, password:string){LecturerNumber++}</text></g><!--class Administrator--><g class="entity" data-qualified-name="Administrator" id="ent0004" data-source-line="27"><rect x="581.92" y="1218.91" width="614.472" height="80.594" fill="#F1F1F1" style="stroke:#181818;stroke-width:0.5;" rx="2.5" ry="2.5"/><ellipse cx="837.065" cy="1234.91" rx="11" ry="11" fill="#ADD1B2" style="stroke:#181818;stroke-width:1;"/><path d="M840.033,1240.551 Q839.455,1240.847 838.815,1240.988 Q838.174,1241.144 837.471,1241.144 Q834.971,1241.144 833.643,1239.504 Q832.33,1237.847 832.33,1234.722 Q832.33,1231.597 833.643,1229.941 Q834.971,1228.285 837.471,1228.285 Q838.174,1228.285 838.815,1228.441 Q839.471,1228.597 840.033,1228.894 L840.033,1231.613 Q839.408,1231.035 838.815,1230.769 Q838.221,1230.488 837.596,1230.488 Q836.252,1230.488 835.565,1231.566 Q834.877,1232.629 834.877,1234.722 Q834.877,1236.816 835.565,1237.894 Q836.252,1238.957 837.596,1238.957 Q838.221,1238.957 838.815,1238.691 Q839.408,1238.41 840.033,1237.832 L840.033,1240.551 Z " fill="#000"/><text x="857.565" y="1239.757" fill="#000" font-size="14" textLength="95.683">Administrator</text><line x1="582.92" y1="1250.91" x2="1195.392" y2="1250.91" style="stroke:#181818;stroke-width:0.5;"/><g data-visibility-modifier="PRIVATE_FIELD"><rect x="589.92" y="1261.558" width="6" height="6" fill="none" style="stroke:#C82930;stroke-width:1;"/></g><text x="601.92" y="1267.905" fill="#000" font-size="14" textLength="226.68">AdministratorNumber : static int</text><line x1="582.92" y1="1275.207" x2="1195.392" y2="1275.207" style="stroke:#181818;stroke-width:0.5;"/><g data-visibility-modifier="PUBLIC_METHOD"><ellipse cx="592.92" cy="1288.855" rx="3" ry="3" fill="#84BE84" style="stroke:#038048;stroke-width:1;"/></g><text x="601.92" y="1292.202" fill="#000" font-size="14" textLength="588.472">Administrator(ame:string, email:string, password:string){AdministratorNumber++}</text></g><!--class Course--><g class="entity" data-qualified-name="Course" id="ent0011" data-source-line="36"><rect x="888.23" y="337.08" width="503.839" height="162.078" fill="#F1F1F1" style="stroke:#181818;stroke-width:0.5;" rx="2.5" ry="2.5"/><ellipse cx="1111.461" cy="353.08" rx="11" ry="11" fill="#A9DCDF" style="stroke:#181818;stroke-width:1;"/><path d="M1111.57,348.424 L1110.414,353.502 L1112.742,353.502 L1111.57,348.424 Z M1110.086,346.189 L1113.07,346.189 L1116.43,358.58 L1113.977,358.58 L1113.211,355.517 L1109.93,355.517 L1109.18,358.58 L1106.742,358.58 L1110.086,346.189 Z " fill="#000"/><text x="1131.961" y="357.927" fill="#000" font-size="14" textLength="48.877" font-style="italic">Course</text><line x1="889.23" y1="369.08" x2="1391.069" y2="369.08" style="stroke:#181818;stroke-width:0.5;"/><g data-visibility-modifier="PRIVATE_FIELD"><rect x="896.23" y="379.728" width="6" height="6" fill="none" style="stroke:#C82930;stroke-width:1;"/></g><text x="908.23" y="386.075" fill="#000" font-size="14" textLength="89.646">Code : string</text><g data-visibility-modifier="PRIVATE_FIELD"><rect x="896.23" y="396.025" width="6" height="6" fill="none" style="stroke:#C82930;stroke-width:1;"/></g><text x="908.23" y="402.372" fill="#000" font-size="14" textLength="84.239">Title : string</text><g data-visibility-modifier="PRIVATE_FIELD"><rect x="896.23" y="412.322" width="6" height="6" fill="none" style="stroke:#C82930;stroke-width:1;"/></g><text x="908.23" y="418.669" fill="#000" font-size="14" textLength="113.812">CreditValue : int</text><g data-visibility-modifier="PRIVATE_FIELD"><rect x="896.23" y="428.619" width="6" height="6" fill="none" style="stroke:#C82930;stroke-width:1;"/></g><text x="908.23" y="434.966" fill="#000" font-size="14" textLength="93.051">Capacity : int</text><g data-visibility-modifier="PRIVATE_FIELD"><rect x="896.23" y="444.916" width="6" height="6" fill="none" style="stroke:#C82930;stroke-width:1;"/></g><text x="908.23" y="451.263" fill="#000" font-size="14" textLength="137.813">Lecturer : Lecturer*</text><line x1="889.23" y1="458.564" x2="1391.069" y2="458.564" style="stroke:#181818;stroke-width:0.5;"/><g data-visibility-modifier="PUBLIC_METHOD"><ellipse cx="899.23" cy="472.213" rx="3" ry="3" fill="#84BE84" style="stroke:#038048;stroke-width:1;"/></g><text x="908.23" y="475.559" fill="#000" font-size="14" textLength="477.839">Course(code: string, title: string, credits: int, cap: int, lec: Lecturer*)</text><g data-visibility-modifier="PUBLIC_METHOD"><ellipse cx="899.23" cy="488.51" rx="3" ry="3" fill="#84BE84" style="stroke:#038048;stroke-width:1;"/></g><text x="908.23" y="491.856" fill="#000" font-size="14" textLength="132.269">DisplayInfo() : void</text></g><!--class Lecture--><g class="entity" data-qualified-name="Lecture" id="ent0014" data-source-line="48"><rect x="358.87" y="7" width="612.571" height="80.594" fill="#F1F1F1" style="stroke:#181818;stroke-width:0.5;" rx="2.5" ry="2.5"/><ellipse cx="634.485" cy="23" rx="11" ry="11" fill="#ADD1B2" style="stroke:#181818;stroke-width:1;"/><path d="M637.453,28.641 Q636.875,28.938 636.235,29.078 Q635.594,29.234 634.891,29.234 Q632.391,29.234 631.063,27.594 Q629.75,25.938 629.75,22.813 Q629.75,19.688 631.063,18.031 Q632.391,16.375 634.891,16.375 Q635.594,16.375 636.235,16.531 Q636.891,16.688 637.453,16.984 L637.453,19.703 Q636.828,19.125 636.235,18.859 Q635.641,18.578 635.016,18.578 Q633.672,18.578 632.985,19.656 Q632.297,20.719 632.297,22.813 Q632.297,24.906 632.985,25.984 Q633.672,27.047 635.016,27.047 Q635.641,27.047 636.235,26.781 Q636.828,26.5 637.453,25.922 L637.453,28.641 Z " fill="#000"/><text x="654.985" y="27.847" fill="#000" font-size="14" textLength="52.842">Lecture</text><line x1="359.87" y1="39" x2="970.441" y2="39" style="stroke:#181818;stroke-width:0.5;"/><g data-visibility-modifier="PRIVATE_FIELD"><rect x="366.87" y="49.648" width="6" height="6" fill="none" style="stroke:#C82930;stroke-width:1;"/></g><text x="378.87" y="55.995" fill="#000" font-size="14" textLength="145.216">Prerequisites : string</text><line x1="359.87" y1="63.297" x2="970.441" y2="63.297" style="stroke:#181818;stroke-width:0.5;"/><g data-visibility-modifier="PUBLIC_METHOD"><ellipse cx="369.87" cy="76.945" rx="3" ry="3" fill="#84BE84" style="stroke:#038048;stroke-width:1;"/></g><text x="378.87" y="80.292" fill="#000" font-size="14" textLength="586.571">Lecture(code: string, title: string, credits: int, cap: int, lec: Lecturer*, prereq: string)</text></g><!--class Lab--><g class="entity" data-qualified-name="Lab" id="ent0015" data-source-line="53"><rect x="1006.65" y="7" width="584.995" height="80.594" fill="#F1F1F1" style="stroke:#181818;stroke-width:0.5;" rx="2.5" ry="2.5"/><ellipse cx="1282.265" cy="23" rx="11" ry="11" fill="#ADD1B2" style="stroke:#181818;stroke-width:1;"/><path d="M1285.233,28.641 Q1284.655,28.938 1284.015,29.078 Q1283.374,29.234 1282.671,29.234 Q1280.171,29.234 1278.843,27.594 Q1277.53,25.938 1277.53,22.813 Q1277.53,19.688 1278.843,18.031 Q1280.171,16.375 1282.671,16.375 Q1283.374,16.375 1284.015,16.531 Q1284.671,16.688 1285.233,16.984 L1285.233,19.703 Q1284.608,19.125 1284.015,18.859 Q1283.421,18.578 1282.796,18.578 Q1281.452,18.578 1280.765,19.656 Q1280.077,20.719 1280.077,22.813 Q1280.077,24.906 1280.765,25.984 Q1281.452,27.047 1282.796,27.047 Q1283.421,27.047 1284.015,26.781 Q1284.608,26.5 1285.233,25.922 L1285.233,28.641 Z " fill="#000"/><text x="1302.765" y="27.847" fill="#000" font-size="14" textLength="25.266">Lab</text><line x1="1007.65" y1="39" x2="1590.645" y2="39" style="stroke:#181818;stroke-width:0.5;"/><g data-visibility-modifier="PRIVATE_FIELD"><rect x="1014.65" y="49.648" width="6" height="6" fill="none" style="stroke:#C82930;stroke-width:1;"/></g><text x="1026.65" y="55.995" fill="#000" font-size="14" textLength="145.216">Prerequisites : string</text><line x1="1007.65" y1="63.297" x2="1590.645" y2="63.297" style="stroke:#181818;stroke-width:0.5;"/><g data-visibility-modifier="PUBLIC_METHOD"><ellipse cx="1017.65" cy="76.945" rx="3" ry="3" fill="#84BE84" style="stroke:#038048;stroke-width:1;"/></g><text x="1026.65" y="80.292" fill="#000" font-size="14" textLength="558.995">Lab(code: string, title: string, credits: int, cap: int, lec: Lecturer*, prereq: string)</text></g><!--class Project--><g class="entity" data-qualified-name="Project" id="ent0016" data-source-line="58"><rect x="1627.06" y="7" width="608.183" height="80.594" fill="#F1F1F1" style="stroke:#181818;stroke-width:0.5;" rx="2.5" ry="2.5"/><ellipse cx="1902.675" cy="23" rx="11" ry="11" fill="#ADD1B2" style="stroke:#181818;stroke-width:1;"/><path d="M1905.643,28.641 Q1905.065,28.938 1904.425,29.078 Q1903.784,29.234 1903.081,29.234 Q1900.581,29.234 1899.253,27.594 Q1897.94,25.938 1897.94,22.813 Q1897.94,19.688 1899.253,18.031 Q1900.581,16.375 1903.081,16.375 Q1903.784,16.375 1904.425,16.531 Q1905.081,16.688 1905.643,16.984 L1905.643,19.703 Q1905.018,19.125 1904.425,18.859 Q1903.831,18.578 1903.206,18.578 Q1901.862,18.578 1901.175,19.656 Q1900.487,20.719 1900.487,22.813 Q1900.487,24.906 1901.175,25.984 Q1901.862,27.047 1903.206,27.047 Q1903.831,27.047 1904.425,26.781 Q1905.018,26.5 1905.643,25.922 L1905.643,28.641 Z " fill="#000"/><text x="1923.175" y="27.847" fill="#000" font-size="14" textLength="48.453">Project</text><line x1="1628.06" y1="39" x2="2234.243" y2="39" style="stroke:#181818;stroke-width:0.5;"/><g data-visibility-modifier="PRIVATE_FIELD"><rect x="1635.06" y="49.648" width="6" height="6" fill="none" style="stroke:#C82930;stroke-width:1;"/></g><text x="1647.06" y="55.995" fill="#000" font-size="14" textLength="145.216">Prerequisites : string</text><line x1="1628.06" y1="63.297" x2="2234.243" y2="63.297" style="stroke:#181818;stroke-width:0.5;"/><g data-visibility-modifier="PUBLIC_METHOD"><ellipse cx="1638.06" cy="76.945" rx="3" ry="3" fill="#84BE84" style="stroke:#038048;stroke-width:1;"/></g><text x="1647.06" y="80.292" fill="#000" font-size="14" textLength="582.183">Project(code: string, title: string, credits: int, cap: int, lec: Lecturer*, prereq: string)</text></g><!--class Timetable--><g class="entity" data-qualified-name="Timetable" id="ent0020" data-source-line="67"><rect x="510.04" y="163.89" width="260.22" height="96.891" fill="#F1F1F1" style="stroke:#181818;stroke-width:0.5;" rx="2.5" ry="2.5"/><ellipse cx="600.825" cy="179.89" rx="11" ry="11" fill="#ADD1B2" style="stroke:#181818;stroke-width:1;"/><path d="M603.793,185.531 Q603.215,185.827 602.575,185.968 Q601.934,186.124 601.231,186.124 Q598.731,186.124 597.403,184.484 Q596.09,182.827 596.09,179.702 Q596.09,176.577 597.403,174.921 Q598.731,173.265 601.231,173.265 Q601.934,173.265 602.575,173.421 Q603.231,173.577 603.793,173.874 L603.793,176.593 Q603.168,176.015 602.575,175.749 Q601.981,175.468 601.356,175.468 Q600.012,175.468 599.325,176.546 Q598.637,177.609 598.637,179.702 Q598.637,181.796 599.325,182.874 Q600.012,183.937 601.356,183.937 Q601.981,183.937 602.575,183.671 Q603.168,183.39 603.793,182.812 L603.793,185.531 Z " fill="#000"/><text x="621.325" y="184.737" fill="#000" font-size="14" textLength="70.15">Timetable</text><line x1="511.04" y1="195.89" x2="769.26" y2="195.89" style="stroke:#181818;stroke-width:0.5;"/><g data-visibility-modifier="PRIVATE_FIELD"><rect x="518.04" y="206.538" width="6" height="6" fill="none" style="stroke:#C82930;stroke-width:1;"/></g><text x="530.04" y="212.885" fill="#000" font-size="14" textLength="207.17">timeslots : vector&lt;TimeSlot></text><line x1="511.04" y1="220.187" x2="769.26" y2="220.187" style="stroke:#181818;stroke-width:0.5;"/><g data-visibility-modifier="PUBLIC_METHOD"><ellipse cx="521.04" cy="233.835" rx="3" ry="3" fill="#84BE84" style="stroke:#038048;stroke-width:1;"/></g><text x="530.04" y="237.182" fill="#000" font-size="14" textLength="233.317">addtimeslot(slot: TimeSlot) : void</text><g data-visibility-modifier="PUBLIC_METHOD"><ellipse cx="521.04" cy="250.132" rx="3" ry="3" fill="#84BE84" style="stroke:#038048;stroke-width:1;"/></g><text x="530.04" y="253.479" fill="#000" font-size="14" textLength="234.22">hasClash(other: Timetable) : bool</text></g><!--class TimeSlot--><g class="entity" data-qualified-name="TimeSlot" id="ent0021" data-source-line="73"><rect x="201.6" y="147.6" width="273.105" height="129.484" fill="#F1F1F1" style="stroke:#181818;stroke-width:0.5;" rx="2.5" ry="2.5"/><ellipse cx="303.141" cy="163.6" rx="11" ry="11" fill="#ADD1B2" style="stroke:#181818;stroke-width:1;"/><path d="M306.11,169.241 Q305.532,169.537 304.891,169.678 Q304.25,169.834 303.547,169.834 Q301.047,169.834 299.719,168.194 Q298.407,166.537 298.407,163.412 Q298.407,160.287 299.719,158.631 Q301.047,156.975 303.547,156.975 Q304.25,156.975 304.891,157.131 Q305.547,157.287 306.11,157.584 L306.11,160.303 Q305.485,159.725 304.891,159.459 Q304.297,159.178 303.672,159.178 Q302.329,159.178 301.641,160.256 Q300.954,161.319 300.954,163.412 Q300.954,165.506 301.641,166.584 Q302.329,167.647 303.672,167.647 Q304.297,167.647 304.891,167.381 Q305.485,167.1 306.11,166.522 L306.11,169.241 Z " fill="#000"/><text x="323.641" y="168.447" fill="#000" font-size="14" textLength="61.523">TimeSlot</text><line x1="202.6" y1="179.6" x2="473.705" y2="179.6" style="stroke:#181818;stroke-width:0.5;"/><g data-visibility-modifier="PRIVATE_FIELD"><rect x="209.6" y="190.248" width="6" height="6" fill="none" style="stroke:#C82930;stroke-width:1;"/></g><text x="221.6" y="196.595" fill="#000" font-size="14" textLength="79.557">day : string</text><g data-visibility-modifier="PRIVATE_FIELD"><rect x="209.6" y="206.545" width="6" height="6" fill="none" style="stroke:#C82930;stroke-width:1;"/></g><text x="221.6" y="212.892" fill="#000" font-size="14" textLength="121.105">startTime : string</text><g data-visibility-modifier="PRIVATE_FIELD"><rect x="209.6" y="222.842" width="6" height="6" fill="none" style="stroke:#C82930;stroke-width:1;"/></g><text x="221.6" y="229.189" fill="#000" font-size="14" textLength="114.871">endTime : string</text><g data-visibility-modifier="PRIVATE_FIELD"><rect x="209.6" y="239.139" width="6" height="6" fill="none" style="stroke:#C82930;stroke-width:1;"/></g><text x="221.6" y="245.486" fill="#000" font-size="14" textLength="109.354">location : string</text><line x1="202.6" y1="252.787" x2="473.705" y2="252.787" style="stroke:#181818;stroke-width:0.5;"/><g data-visibility-modifier="PUBLIC_METHOD"><ellipse cx="212.6" cy="266.436" rx="3" ry="3" fill="#84BE84" style="stroke:#038048;stroke-width:1;"/></g><text x="221.6" y="269.783" fill="#000" font-size="14" textLength="247.105">overlapWith(other: TimeSlot) : bool</text></g><!--class EnrollmentTemp--><g class="entity" data-qualified-name="EnrollmentTemp" id="ent0022" data-source-line="81"><rect x="1224.97" y="620.16" width="294.358" height="145.781" fill="#F1F1F1" style="stroke:#181818;stroke-width:0.5;" rx="2.5" ry="2.5"/><ellipse cx="1309.838" cy="636.16" rx="11" ry="11" fill="#ADD1B2" style="stroke:#181818;stroke-width:1;"/><path d="M1312.807,641.801 Q1312.229,642.098 1311.588,642.238 Q1310.948,642.394 1310.244,642.394 Q1307.744,642.394 1306.416,640.754 Q1305.104,639.098 1305.104,635.973 Q1305.104,632.848 1306.416,631.191 Q1307.744,629.535 1310.244,629.535 Q1310.948,629.535 1311.588,629.691 Q1312.244,629.848 1312.807,630.144 L1312.807,632.863 Q1312.182,632.285 1311.588,632.019 Q1310.994,631.738 1310.369,631.738 Q1309.026,631.738 1308.338,632.816 Q1307.651,633.879 1307.651,635.973 Q1307.651,638.066 1308.338,639.144 Q1309.026,640.207 1310.369,640.207 Q1310.994,640.207 1311.588,639.941 Q1312.182,639.66 1312.807,639.082 L1312.807,641.801 Z " fill="#000"/><text x="1330.338" y="641.007" fill="#000" font-size="14" textLength="116.122">EnrollmentTemp</text><line x1="1225.97" y1="652.16" x2="1518.328" y2="652.16" style="stroke:#181818;stroke-width:0.5;"/><g data-visibility-modifier="PRIVATE_FIELD"><rect x="1232.97" y="662.808" width="6" height="6" fill="none" style="stroke:#C82930;stroke-width:1;"/></g><text x="1244.97" y="669.155" fill="#000" font-size="14" textLength="120.34">studentId : string</text><g data-visibility-modifier="PRIVATE_FIELD"><rect x="1232.97" y="679.105" width="6" height="6" fill="none" style="stroke:#C82930;stroke-width:1;"/></g><text x="1244.97" y="685.452" fill="#000" font-size="14" textLength="252.629">selectedCourses : vector&lt;Course*></text><line x1="1225.97" y1="692.754" x2="1518.328" y2="692.754" style="stroke:#181818;stroke-width:0.5;"/><g data-visibility-modifier="PUBLIC_METHOD"><ellipse cx="1235.97" cy="706.402" rx="3" ry="3" fill="#84BE84" style="stroke:#038048;stroke-width:1;"/></g><text x="1244.97" y="709.749" fill="#000" font-size="14" textLength="241.24">addCourse(course: Course*) : void</text><g data-visibility-modifier="PUBLIC_METHOD"><ellipse cx="1235.97" cy="722.699" rx="3" ry="3" fill="#84BE84" style="stroke:#038048;stroke-width:1;"/></g><text x="1244.97" y="726.046" fill="#000" font-size="14" textLength="268.358">removeCourse(course: Course*) : void</text><g data-visibility-modifier="PUBLIC_METHOD"><ellipse cx="1235.97" cy="738.996" rx="3" ry="3" fill="#84BE84" style="stroke:#038048;stroke-width:1;"/></g><text x="1244.97" y="742.343" fill="#000" font-size="14" textLength="241.309">showallCourses() : vector&lt;string></text><g data-visibility-modifier="PUBLIC_METHOD"><ellipse cx="1235.97" cy="755.293" rx="3" ry="3" fill="#84BE84" style="stroke:#038048;stroke-width:1;"/></g><text x="1244.97" y="758.639" fill="#000" font-size="14" textLength="189.513">finalizeRegistration() : bool</text></g><!--reverse link Person to Student--><g class="link" data-entity-1="ent0001" data-entity-2="ent0002" id="lnk6" data-source-line="32" data-link-type="extension"><path d="M1246.82,1099.98 C1246.82,1140.26 1246.82,1167.53 1246.82,1202.23" style="stroke:#181818;stroke-width:1;" fill="none" id="Person-backto-Student" codeLine="32"/><polygon points="1246.82,1081.98,1240.82,1099.98,1252.82,1099.98,1246.82,1081.98" fill="none" style="stroke:#181818;stroke-width:1;stroke-linejoin:miter;stroke-miterlimit:10;"/></g><!--reverse link Person to Lecturer--><g class="link" data-entity-1="ent0001" data-entity-2="ent0003" id="lnk8" data-source-line="33" data-link-type="extension"><path d="M861.89,984.8 C705.71,984.8 528.67,984.8 528.67,984.8 C528.67,984.8 528.67,1141.98 528.67,1218.42" style="stroke:#181818;stroke-width:1;" fill="none" id="Person-backto-Lecturer" codeLine="33"/><polygon points="879.89,984.8,861.89,978.8,861.89,990.8,879.89,984.8" fill="none" style="stroke:#181818;stroke-width:1;stroke-linejoin:miter;stroke-miterlimit:10;"/></g><!--reverse link Person to Administrator--><g class="link" data-entity-1="ent0001" data-entity-2="ent0004" id="lnk10" data-source-line="34" data-link-type="extension"><path d="M1038.27,1099.98 C1038.27,1146.9 1038.27,1182.58 1038.27,1218.45" style="stroke:#181818;stroke-width:1;" fill="none" id="Person-backto-Administrator" codeLine="34"/><polygon points="1038.27,1081.98,1032.27,1099.98,1044.27,1099.98,1038.27,1081.98" fill="none" style="stroke:#181818;stroke-width:1;stroke-linejoin:miter;stroke-miterlimit:10;"/></g><!--link Course to Person--><!--link Lecture to Course--><g class="link" data-entity-1="ent0014" data-entity-2="ent0011" id="lnk17" data-source-line="63" data-link-type="extension"><path d="M943.7,88.04 C943.7,147.69 943.7,242 943.7,318.91" style="stroke:#181818;stroke-width:1;" fill="none" id="Lecture-to-Course" codeLine="63"/><polygon points="943.7,336.91,949.7,318.91,937.7,318.91,943.7,336.91" fill="none" style="stroke:#181818;stroke-width:1;stroke-linejoin:miter;stroke-miterlimit:10;"/></g><!--link Lab to Course--><g class="link" data-entity-1="ent0015" data-entity-2="ent0011" id="lnk18" data-source-line="64" data-link-type="extension"><path d="M1199.36,88.04 C1199.36,147.69 1199.36,242 1199.36,318.91" style="stroke:#181818;stroke-width:1;" fill="none" id="Lab-to-Course" codeLine="64"/><polygon points="1199.36,336.91,1205.36,318.91,1193.36,318.91,1199.36,336.91" fill="none" style="stroke:#181818;stroke-width:1;stroke-linejoin:miter;stroke-miterlimit:10;"/></g><!--link Project to Course--><g class="link" data-entity-1="ent0016" data-entity-2="ent0011" id="lnk19" data-source-line="65" data-link-type="extension"><path d="M1695.94,87.76 C1695.94,184.05 1695.94,418.8 1695.94,418.8 C1695.94,418.8 1557.37,418.8 1410.43,418.8" style="stroke:#181818;stroke-width:1;" fill="none" id="Project-to-Course" codeLine="65"/><polygon points="1392.43,418.8,1410.43,424.8,1410.43,412.8,1392.43,418.8" fill="none" style="stroke:#181818;stroke-width:1;stroke-linejoin:miter;stroke-miterlimit:10;"/></g><!--link Timetable to Course--><g class="link" data-entity-1="ent0020" data-entity-2="ent0011" id="lnk23" data-source-line="90" data-link-type="composition"><path d="M770.39,212.8 C841.8,212.8 915.97,212.8 915.97,212.8 C915.97,212.8 915.97,267.35 915.97,324.68" style="stroke:#181818;stroke-width:1;" fill="none" id="Timetable-to-Course" codeLine="90"/><polygon points="915.97,336.68,919.97,330.68,915.97,324.68,911.97,330.68,915.97,336.68" fill="#181818" style="stroke:#181818;stroke-width:1;stroke-linejoin:miter;stroke-miterlimit:10;"/></g><!--link TimeSlot to Timetable--><g class="link" data-entity-1="ent0021" data-entity-2="ent0020" id="lnk24" data-source-line="91" data-link-type="composition"><path d="M475.01,212.8 C486.56,212.8 486.22,212.8 497.72,212.8" style="stroke:#181818;stroke-width:1;" fill="none" id="TimeSlot-to-Timetable" codeLine="91"/><polygon points="509.72,212.8,503.72,208.8,497.72,212.8,503.72,216.8,509.72,212.8" fill="#181818" style="stroke:#181818;stroke-width:1;stroke-linejoin:miter;stroke-miterlimit:10;"/></g><!--link EnrollmentTemp to Student--><g class="link" data-entity-1="ent0022" data-entity-2="ent0002" id="lnk25" data-source-line="92" data-link-type="dependency"><path d="M1390.74,766.2 C1390.74,880.53 1390.74,1094.19 1390.74,1197.49" style="stroke:#181818;stroke-width:1;stroke-dasharray:7,7;" fill="none" id="EnrollmentTemp-to-Student" codeLine="92"/><polygon points="1390.74,1202.49,1394.74,1193.49,1390.74,1197.49,1386.74,1193.49,1390.74,1202.49" fill="#181818" style="stroke:#181818;stroke-width:1;stroke-linejoin:miter;stroke-miterlimit:10;"/></g><!--reverse link Course to EnrollmentTemp--><g class="link" data-entity-1="ent0011" data-entity-2="ent0022" id="lnk27" data-source-line="93" data-link-type="dependency"><path d="M1308.52,504.49 C1308.52,542.65 1308.52,582.77 1308.52,619.85" style="stroke:#181818;stroke-width:1;stroke-dasharray:7,7;" fill="none" id="Course-backto-EnrollmentTemp" codeLine="93"/><polygon points="1308.52,499.49,1304.52,508.49,1308.52,504.49,1312.52,508.49,1308.52,499.49" fill="#181818" style="stroke:#181818;stroke-width:1;stroke-linejoin:miter;stroke-miterlimit:10;"/></g><?plantuml-src jLNBJXin5DtFLrZgPfBWV41K8LK92oI4eXArYweBpzXaN3psrFQ0Kig_zthyo7W04QIIHH8VtyUvJvixBZkYIOkkk6Jsq36aj6rKKP3AM4rgYsf1Z45RfesIwB50yFbqkK4h1FTSxZrmJLesWIvQmaMEuIsOUb2Qvl326oyb65bv_0mnfvvENL0CmCphKMv89yXXGqnJAG9soncOlbUSUe4zivUR0VDwg5RIsEETl5KJZRfXzLsYELnMIecW-5GKFXqtjgTCsf0F78xNVLinFNWZbjU8I-yBCwcL48okLQyDCyuZgwtIdpqmF_VEWvdoz3myPfuNYwSKsqNkyXXcYk4AAFGQ-8OWulcrA1PHu3tySgEEOFB_XRPSSjTba8b88WDVPP99lOVE2-O3frXHZFiE_pqF3L-a93buXEVa9qf5c1P0VpISWjsV63x8r-BPR7auPc2jw6IKy8vRCSNMcb5kln7HkvlKQMlIaPhRmnXBCQnIpUS-ZzvpMOFBQFqCMUVjUAm7HsQm1oVIXN-2rIDxOI8ttBY1p0Thsd4nqYqeijyzDzmECp5U2K7qVr23DXWSHRtPY12fJY93gWycijNg5uYTGYQ8VXYXM2ICgNgGhgj3sxfaUMm4HkBFf4DWEzuoIogHYcu1C4BPqH9qCZS0XIr8A8r2fVjQeIYGh-g6c3NuQ4fb6wPNHrTnQH_J6mr44fGS9kC46qPR9pR1cQGle4BLi91WmlFIg7kc1Uc-SvkHYjHpJdv1jx1pTgpj8ZEmD-oXoyaR2HSCYcVVV4CGf2-DjVjPXOhCy-mXpLhWUvAeQTG34I9xIhnlpp2wlkMI2Fw7VMLxlneXHUKuycCtO3oFdPAAWpNVDnOkabWnITBIDTdoF3w_pwxxRXaRy1y0?></g></svg>